<svg width="69" height="25" viewBox="0 0 69 25" fill="none" xmlns="http://www.w3.org/2000/svg">
<path fill-rule="evenodd" clip-rule="evenodd" d="M64 1H5C2.79086 1 1 2.79086 1 5V20C1 22.2091 2.79086 24 5 24H64C66.2091 24 68 22.2091 68 20V5C68 2.79086 66.2091 1 64 1ZM5 0C2.23858 0 0 2.23858 0 5V20C0 22.7614 2.23858 25 5 25H64C66.7614 25 69 22.7614 69 20V5C69 2.23858 66.7614 0 64 0H5Z" fill="#6836DD"/>
<path d="M16.8608 16V7.27274H18.4418V14.6747H22.2856V16H16.8608Z" fill="#EAEAEA"/>
<path d="M26.4446 16.1278C25.8054 16.1278 25.2515 15.9872 24.7827 15.706C24.314 15.4247 23.9503 15.0313 23.6918 14.5256C23.4361 14.0199 23.3083 13.429 23.3083 12.7528C23.3083 12.0767 23.4361 11.4844 23.6918 10.9759C23.9503 10.4673 24.314 10.0725 24.7827 9.7912C25.2515 9.50995 25.8054 9.36933 26.4446 9.36933C27.0839 9.36933 27.6378 9.50995 28.1066 9.7912C28.5753 10.0725 28.9375 10.4673 29.1932 10.9759C29.4517 11.4844 29.581 12.0767 29.581 12.7528C29.581 13.429 29.4517 14.0199 29.1932 14.5256C28.9375 15.0313 28.5753 15.4247 28.1066 15.706C27.6378 15.9872 27.0839 16.1278 26.4446 16.1278ZM26.4532 14.8921C26.7998 14.8921 27.0895 14.7969 27.3225 14.6065C27.5554 14.4134 27.7287 14.1548 27.8424 13.831C27.9589 13.5071 28.0171 13.1463 28.0171 12.7486C28.0171 12.348 27.9589 11.9858 27.8424 11.6619C27.7287 11.3352 27.5554 11.0753 27.3225 10.8821C27.0895 10.6889 26.7998 10.5923 26.4532 10.5923C26.0981 10.5923 25.8026 10.6889 25.5668 10.8821C25.3339 11.0753 25.1591 11.3352 25.0427 11.6619C24.929 11.9858 24.8722 12.348 24.8722 12.7486C24.8722 13.1463 24.929 13.5071 25.0427 13.831C25.1591 14.1548 25.3339 14.4134 25.5668 14.6065C25.8026 14.7969 26.0981 14.8921 26.4532 14.8921Z" fill="#EAEAEA"/>
<path d="M33.7369 18.5909C33.1829 18.5909 32.7071 18.5156 32.3093 18.3651C31.9116 18.2173 31.592 18.0185 31.3505 17.7685C31.1091 17.5185 30.9415 17.2415 30.8477 16.9375L32.2369 16.6009C32.2994 16.7287 32.3903 16.8551 32.5096 16.9801C32.629 17.108 32.7895 17.2131 32.9912 17.2955C33.1957 17.3807 33.4528 17.4233 33.7625 17.4233C34.2 17.4233 34.5622 17.3168 34.8491 17.1037C35.1361 16.8935 35.2795 16.5469 35.2795 16.0639V14.8239H35.2028C35.1233 14.983 35.0068 15.1463 34.8534 15.3139C34.7028 15.4815 34.5025 15.6222 34.2525 15.7358C34.0054 15.8494 33.6943 15.9063 33.3193 15.9063C32.8164 15.9063 32.3605 15.7884 31.9514 15.5526C31.5451 15.3139 31.2213 14.9588 30.9798 14.4872C30.7412 14.0128 30.6218 13.419 30.6218 12.706C30.6218 11.9872 30.7412 11.3807 30.9798 10.8864C31.2213 10.3892 31.5466 10.0128 31.9557 9.75711C32.3647 9.49859 32.8207 9.36933 33.3236 9.36933C33.7071 9.36933 34.0224 9.43467 34.2696 9.56535C34.5196 9.69319 34.7184 9.84802 34.8662 10.0298C35.0139 10.2088 35.1261 10.3778 35.2028 10.5369H35.288V9.45455H36.8093V16.1065C36.8093 16.6662 36.6758 17.1293 36.4088 17.4957C36.1417 17.8622 35.7767 18.1364 35.3136 18.3182C34.8505 18.5 34.325 18.5909 33.7369 18.5909ZM33.7497 14.696C34.0764 14.696 34.3548 14.6165 34.5849 14.4574C34.815 14.2983 34.9897 14.0696 35.1091 13.7713C35.2284 13.473 35.288 13.1151 35.288 12.6975C35.288 12.2855 35.2284 11.9247 35.1091 11.6151C34.9926 11.3054 34.8193 11.0653 34.5892 10.8949C34.3619 10.7216 34.0821 10.635 33.7497 10.635C33.4059 10.635 33.119 10.7244 32.8889 10.9034C32.6588 11.0824 32.4855 11.3281 32.369 11.6406C32.2525 11.9503 32.1943 12.3026 32.1943 12.6975C32.1943 13.098 32.2525 13.4489 32.369 13.75C32.4883 14.0483 32.663 14.2813 32.8932 14.4489C33.1261 14.6136 33.4116 14.696 33.7497 14.696Z" fill="#EAEAEA"/>
<path d="M41.3669 16V9.45455H42.9095V16H41.3669ZM42.1424 8.52558C41.8981 8.52558 41.6879 8.44461 41.5118 8.28268C41.3356 8.11791 41.2476 7.92046 41.2476 7.69035C41.2476 7.45739 41.3356 7.25995 41.5118 7.09802C41.6879 6.93325 41.8981 6.85086 42.1424 6.85086C42.3896 6.85086 42.5998 6.93325 42.7731 7.09802C42.9493 7.25995 43.0373 7.45739 43.0373 7.69035C43.0373 7.92046 42.9493 8.11791 42.7731 8.28268C42.5998 8.44461 42.3896 8.52558 42.1424 8.52558Z" fill="#EAEAEA"/>
<path d="M46.0384 12.1648V16H44.4958V9.45455H45.9702V10.5668H46.0469C46.1975 10.2003 46.4375 9.9091 46.7671 9.69319C47.0995 9.47728 47.51 9.36933 47.9986 9.36933C48.4503 9.36933 48.8438 9.46592 49.179 9.6591C49.5171 9.85228 49.7785 10.1321 49.9631 10.4986C50.1506 10.8651 50.2429 11.3097 50.2401 11.8324V16H48.6975V12.071C48.6975 11.6335 48.5838 11.2912 48.3566 11.044C48.1321 10.7969 47.8211 10.6733 47.4233 10.6733C47.1535 10.6733 46.9134 10.733 46.7032 10.8523C46.4958 10.9688 46.3324 11.1378 46.2131 11.3594C46.0966 11.581 46.0384 11.8494 46.0384 12.1648Z" fill="#EAEAEA"/>
</svg>
