<svg width="165" height="34" viewBox="0 0 165 34" fill="none" xmlns="http://www.w3.org/2000/svg">
<path d="M0.528409 1.40625V0.272727H7.28267V1.40625H4.55966V9H3.24716V1.40625H0.528409ZM15.9812 4.63636C15.9812 5.56818 15.8107 6.36932 15.4698 7.03977C15.1289 7.70739 14.6616 8.22159 14.0678 8.58239C13.4769 8.94034 12.805 9.11932 12.0522 9.11932C11.2965 9.11932 10.6218 8.94034 10.0281 8.58239C9.43714 8.22159 8.97124 7.70597 8.63033 7.03551C8.28942 6.36506 8.11896 5.56534 8.11896 4.63636C8.11896 3.70455 8.28942 2.90483 8.63033 2.23722C8.97124 1.56676 9.43714 1.05256 10.0281 0.694602C10.6218 0.333807 11.2965 0.153409 12.0522 0.153409C12.805 0.153409 13.4769 0.333807 14.0678 0.694602C14.6616 1.05256 15.1289 1.56676 15.4698 2.23722C15.8107 2.90483 15.9812 3.70455 15.9812 4.63636ZM14.6772 4.63636C14.6772 3.92614 14.5621 3.32812 14.332 2.84233C14.1048 2.35369 13.7923 1.98438 13.3945 1.73438C12.9996 1.48153 12.5522 1.35511 12.0522 1.35511C11.5494 1.35511 11.1005 1.48153 10.7056 1.73438C10.3107 1.98438 9.99822 2.35369 9.76811 2.84233C9.54084 3.32812 9.4272 3.92614 9.4272 4.63636C9.4272 5.34659 9.54084 5.94602 9.76811 6.43466C9.99822 6.92045 10.3107 7.28977 10.7056 7.54261C11.1005 7.79261 11.5494 7.91761 12.0522 7.91761C12.5522 7.91761 12.9996 7.79261 13.3945 7.54261C13.7923 7.28977 14.1048 6.92045 14.332 6.43466C14.5621 5.94602 14.6772 5.34659 14.6772 4.63636ZM23.2351 0.272727H24.5561V6.01278C24.5561 6.62358 24.4126 7.16477 24.1257 7.63636C23.8388 8.10511 23.4354 8.47443 22.9155 8.74432C22.3956 9.01136 21.7862 9.14489 21.0874 9.14489C20.3913 9.14489 19.7834 9.01136 19.2635 8.74432C18.7436 8.47443 18.3402 8.10511 18.0533 7.63636C17.7663 7.16477 17.6229 6.62358 17.6229 6.01278V0.272727H18.9396V5.90625C18.9396 6.30114 19.0263 6.65199 19.1996 6.95881C19.3757 7.26562 19.6243 7.5071 19.9453 7.68324C20.2663 7.85653 20.647 7.94318 21.0874 7.94318C21.5305 7.94318 21.9126 7.85653 22.2337 7.68324C22.5575 7.5071 22.8047 7.26562 22.9751 6.95881C23.1484 6.65199 23.2351 6.30114 23.2351 5.90625V0.272727ZM33.7191 3.1108H32.3896C32.3384 2.8267 32.2433 2.5767 32.104 2.3608C31.9648 2.14489 31.7944 1.96165 31.5927 1.81108C31.391 1.66051 31.1651 1.54687 30.9151 1.47017C30.668 1.39347 30.4052 1.35511 30.1268 1.35511C29.6239 1.35511 29.1737 1.48153 28.7759 1.73438C28.381 1.98722 28.0685 2.35795 27.8384 2.84659C27.6112 3.33523 27.4975 3.93182 27.4975 4.63636C27.4975 5.34659 27.6112 5.94602 27.8384 6.43466C28.0685 6.9233 28.3825 7.29261 28.7802 7.54261C29.1779 7.79261 29.6254 7.91761 30.1225 7.91761C30.3981 7.91761 30.6594 7.88068 30.9066 7.80682C31.1566 7.73011 31.3825 7.6179 31.5842 7.47017C31.7859 7.32244 31.9563 7.14205 32.0955 6.92898C32.2376 6.71307 32.3356 6.46591 32.3896 6.1875L33.7191 6.19176C33.6481 6.62074 33.5103 7.01562 33.3058 7.37642C33.104 7.73438 32.8441 8.04403 32.5259 8.3054C32.2106 8.56392 31.8498 8.7642 31.4435 8.90625C31.0373 9.0483 30.5941 9.11932 30.114 9.11932C29.3583 9.11932 28.685 8.94034 28.0941 8.58239C27.5032 8.22159 27.0373 7.70597 26.6964 7.03551C26.3583 6.36506 26.1893 5.56534 26.1893 4.63636C26.1893 3.70455 26.3597 2.90483 26.7006 2.23722C27.0415 1.56676 27.5075 1.05256 28.0984 0.694602C28.6893 0.333807 29.3612 0.153409 30.114 0.153409C30.5771 0.153409 31.0089 0.22017 31.4094 0.353693C31.8129 0.484375 32.1751 0.677557 32.4961 0.933239C32.8171 1.18608 33.0827 1.49574 33.293 1.86222C33.5032 2.22585 33.6452 2.64205 33.7191 3.1108ZM35.2947 9V0.272727H36.6115V4.06534H40.9624V0.272727H42.2834V9H40.9624V5.1946H36.6115V9H35.2947ZM44.201 9V0.272727H45.5178V7.86648H49.4723V9H44.201ZM50.9744 9V0.272727H56.446V1.40625H52.2912V4.06534H56.1605V5.1946H52.2912V7.86648H56.4972V9H50.9744ZM62.9648 2.56534C62.9194 2.16193 62.7319 1.84943 62.4023 1.62784C62.0728 1.40341 61.658 1.29119 61.158 1.29119C60.8001 1.29119 60.4904 1.34801 60.229 1.46165C59.9677 1.57244 59.7646 1.72585 59.6197 1.92188C59.4776 2.11506 59.4066 2.33523 59.4066 2.58239C59.4066 2.78977 59.4549 2.96875 59.5515 3.11932C59.6509 3.26989 59.7802 3.39631 59.9393 3.49858C60.1012 3.59801 60.2745 3.68182 60.4592 3.75C60.6438 3.81534 60.8214 3.86932 60.9918 3.91193L61.8441 4.13352C62.1225 4.2017 62.408 4.29403 62.7006 4.41051C62.9933 4.52699 63.2646 4.6804 63.5146 4.87074C63.7646 5.06108 63.9663 5.29688 64.1197 5.57812C64.2759 5.85938 64.354 6.19602 64.354 6.58807C64.354 7.08239 64.2262 7.52131 63.9705 7.90483C63.7177 8.28835 63.3498 8.59091 62.8668 8.8125C62.3867 9.03409 61.8058 9.14489 61.1239 9.14489C60.4705 9.14489 59.9052 9.04119 59.4279 8.83381C58.9506 8.62642 58.5771 8.33239 58.3072 7.9517C58.0373 7.56818 57.8881 7.11364 57.8597 6.58807H59.1808C59.2063 6.90341 59.3086 7.16619 59.4876 7.37642C59.6694 7.58381 59.9009 7.73864 60.1822 7.84091C60.4663 7.94034 60.7773 7.99006 61.1154 7.99006C61.4876 7.99006 61.8185 7.93182 62.1083 7.81534C62.4009 7.69602 62.631 7.53125 62.7987 7.32102C62.9663 7.10795 63.0501 6.85937 63.0501 6.57528C63.0501 6.31676 62.9762 6.10511 62.8285 5.94034C62.6836 5.77557 62.4862 5.6392 62.2362 5.53125C61.989 5.4233 61.7092 5.32812 61.3967 5.24574L60.3654 4.96449C59.6665 4.77415 59.1126 4.49432 58.7035 4.125C58.2972 3.75568 58.0941 3.26705 58.0941 2.65909C58.0941 2.15625 58.2305 1.71733 58.5032 1.34233C58.7759 0.967329 59.1452 0.676136 59.6112 0.46875C60.0771 0.258523 60.6026 0.153409 61.1879 0.153409C61.7788 0.153409 62.3001 0.257102 62.7518 0.464489C63.2063 0.671875 63.5643 0.957386 63.8256 1.32102C64.087 1.68182 64.2234 2.09659 64.2347 2.56534H62.9648ZM70.6875 2.56534C70.642 2.16193 70.4545 1.84943 70.125 1.62784C69.7955 1.40341 69.3807 1.29119 68.8807 1.29119C68.5227 1.29119 68.2131 1.34801 67.9517 1.46165C67.6903 1.57244 67.4872 1.72585 67.3423 1.92188C67.2003 2.11506 67.1293 2.33523 67.1293 2.58239C67.1293 2.78977 67.1776 2.96875 67.2741 3.11932C67.3736 3.26989 67.5028 3.39631 67.6619 3.49858C67.8239 3.59801 67.9972 3.68182 68.1818 3.75C68.3665 3.81534 68.544 3.86932 68.7145 3.91193L69.5668 4.13352C69.8452 4.2017 70.1307 4.29403 70.4233 4.41051C70.7159 4.52699 70.9872 4.6804 71.2372 4.87074C71.4872 5.06108 71.6889 5.29688 71.8423 5.57812C71.9986 5.85938 72.0767 6.19602 72.0767 6.58807C72.0767 7.08239 71.9489 7.52131 71.6932 7.90483C71.4403 8.28835 71.0724 8.59091 70.5895 8.8125C70.1094 9.03409 69.5284 9.14489 68.8466 9.14489C68.1932 9.14489 67.6278 9.04119 67.1506 8.83381C66.6733 8.62642 66.2997 8.33239 66.0298 7.9517C65.7599 7.56818 65.6108 7.11364 65.5824 6.58807H66.9034C66.929 6.90341 67.0313 7.16619 67.2102 7.37642C67.392 7.58381 67.6236 7.73864 67.9048 7.84091C68.1889 7.94034 68.5 7.99006 68.8381 7.99006C69.2102 7.99006 69.5412 7.93182 69.831 7.81534C70.1236 7.69602 70.3537 7.53125 70.5213 7.32102C70.6889 7.10795 70.7727 6.85937 70.7727 6.57528C70.7727 6.31676 70.6989 6.10511 70.5511 5.94034C70.4063 5.77557 70.2088 5.6392 69.9588 5.53125C69.7116 5.4233 69.4318 5.32812 69.1193 5.24574L68.0881 4.96449C67.3892 4.77415 66.8352 4.49432 66.4261 4.125C66.0199 3.75568 65.8168 3.26705 65.8168 2.65909C65.8168 2.15625 65.9531 1.71733 66.2259 1.34233C66.4986 0.967329 66.8679 0.676136 67.3338 0.46875C67.7997 0.258523 68.3253 0.153409 68.9105 0.153409C69.5014 0.153409 70.0227 0.257102 70.4744 0.464489C70.929 0.671875 71.2869 0.957386 71.5483 1.32102C71.8097 1.68182 71.946 2.09659 71.9574 2.56534H70.6875ZM84.0746 3.1108H82.745C82.6939 2.8267 82.5987 2.5767 82.4595 2.3608C82.3203 2.14489 82.1499 1.96165 81.9482 1.81108C81.7464 1.66051 81.5206 1.54687 81.2706 1.47017C81.0234 1.39347 80.7607 1.35511 80.4822 1.35511C79.9794 1.35511 79.5291 1.48153 79.1314 1.73438C78.7365 1.98722 78.424 2.35795 78.1939 2.84659C77.9666 3.33523 77.853 3.93182 77.853 4.63636C77.853 5.34659 77.9666 5.94602 78.1939 6.43466C78.424 6.9233 78.7379 7.29261 79.1357 7.54261C79.5334 7.79261 79.9808 7.91761 80.478 7.91761C80.7536 7.91761 81.0149 7.88068 81.2621 7.80682C81.5121 7.73011 81.7379 7.6179 81.9396 7.47017C82.1413 7.32244 82.3118 7.14205 82.451 6.92898C82.593 6.71307 82.6911 6.46591 82.745 6.1875L84.0746 6.19176C84.0036 6.62074 83.8658 7.01562 83.6612 7.37642C83.4595 7.73438 83.1996 8.04403 82.8814 8.3054C82.5661 8.56392 82.2053 8.7642 81.799 8.90625C81.3928 9.0483 80.9496 9.11932 80.4695 9.11932C79.7138 9.11932 79.0405 8.94034 78.4496 8.58239C77.8587 8.22159 77.3928 7.70597 77.0518 7.03551C76.7138 6.36506 76.5447 5.56534 76.5447 4.63636C76.5447 3.70455 76.7152 2.90483 77.0561 2.23722C77.397 1.56676 77.8629 1.05256 78.4538 0.694602C79.0447 0.333807 79.7166 0.153409 80.4695 0.153409C80.9325 0.153409 81.3643 0.22017 81.7649 0.353693C82.1683 0.484375 82.5305 0.677557 82.8516 0.933239C83.1726 1.18608 83.4382 1.49574 83.6484 1.86222C83.8587 2.22585 84.0007 2.64205 84.0746 3.1108ZM93.2312 4.63636C93.2312 5.56818 93.0607 6.36932 92.7198 7.03977C92.3789 7.70739 91.9116 8.22159 91.3178 8.58239C90.7269 8.94034 90.055 9.11932 89.3022 9.11932C88.5465 9.11932 87.8718 8.94034 87.2781 8.58239C86.6871 8.22159 86.2212 7.70597 85.8803 7.03551C85.5394 6.36506 85.369 5.56534 85.369 4.63636C85.369 3.70455 85.5394 2.90483 85.8803 2.23722C86.2212 1.56676 86.6871 1.05256 87.2781 0.694602C87.8718 0.333807 88.5465 0.153409 89.3022 0.153409C90.055 0.153409 90.7269 0.333807 91.3178 0.694602C91.9116 1.05256 92.3789 1.56676 92.7198 2.23722C93.0607 2.90483 93.2312 3.70455 93.2312 4.63636ZM91.9272 4.63636C91.9272 3.92614 91.8121 3.32812 91.582 2.84233C91.3548 2.35369 91.0423 1.98438 90.6445 1.73438C90.2496 1.48153 89.8022 1.35511 89.3022 1.35511C88.7994 1.35511 88.3505 1.48153 87.9556 1.73438C87.5607 1.98438 87.2482 2.35369 87.0181 2.84233C86.7908 3.32812 86.6772 3.92614 86.6772 4.63636C86.6772 5.34659 86.7908 5.94602 87.0181 6.43466C87.2482 6.92045 87.5607 7.28977 87.9556 7.54261C88.3505 7.79261 88.7994 7.91761 89.3022 7.91761C89.8022 7.91761 90.2496 7.79261 90.6445 7.54261C91.0423 7.28977 91.3548 6.92045 91.582 6.43466C91.8121 5.94602 91.9272 5.34659 91.9272 4.63636ZM94.8729 0.272727H96.4709L99.2493 7.05682H99.3516L102.13 0.272727H103.728V9H102.475V2.68466H102.394L99.8203 8.98722H98.7805L96.2067 2.6804H96.1257V9H94.8729V0.272727ZM105.642 9V0.272727H108.753C109.432 0.272727 109.995 0.396307 110.441 0.643466C110.887 0.890625 111.221 1.22869 111.442 1.65767C111.664 2.08381 111.775 2.56392 111.775 3.09801C111.775 3.63494 111.662 4.1179 111.438 4.54688C111.216 4.97301 110.881 5.31108 110.432 5.56108C109.986 5.80824 109.425 5.93182 108.749 5.93182H106.61V4.81534H108.63C109.059 4.81534 109.407 4.74148 109.674 4.59375C109.941 4.44318 110.137 4.23864 110.262 3.98011C110.387 3.72159 110.449 3.42756 110.449 3.09801C110.449 2.76847 110.387 2.47585 110.262 2.22017C110.137 1.96449 109.939 1.7642 109.669 1.61932C109.402 1.47443 109.05 1.40199 108.613 1.40199H106.959V9H105.642ZM118.93 0.272727H120.251V6.01278C120.251 6.62358 120.108 7.16477 119.821 7.63636C119.534 8.10511 119.131 8.47443 118.611 8.74432C118.091 9.01136 117.482 9.14489 116.783 9.14489C116.087 9.14489 115.479 9.01136 114.959 8.74432C114.439 8.47443 114.036 8.10511 113.749 7.63636C113.462 7.16477 113.318 6.62358 113.318 6.01278V0.272727H114.635V5.90625C114.635 6.30114 114.722 6.65199 114.895 6.95881C115.071 7.26562 115.32 7.5071 115.641 7.68324C115.962 7.85653 116.342 7.94318 116.783 7.94318C117.226 7.94318 117.608 7.85653 117.929 7.68324C118.253 7.5071 118.5 7.26562 118.67 6.95881C118.844 6.65199 118.93 6.30114 118.93 5.90625V0.272727ZM121.735 1.40625V0.272727H128.49V1.40625H125.767V9H124.454V1.40625H121.735ZM131.299 0.272727V9H129.982V0.272727H131.299ZM140.261 0.272727V9H139.05L134.614 2.59943H134.533V9H133.217V0.272727H134.435L138.876 6.68182H138.957V0.272727H140.261ZM148.088 3.02983C148.005 2.77131 147.895 2.53977 147.755 2.33523C147.619 2.12784 147.456 1.9517 147.265 1.80682C147.075 1.65909 146.858 1.54687 146.613 1.47017C146.372 1.39347 146.106 1.35511 145.816 1.35511C145.325 1.35511 144.882 1.48153 144.487 1.73438C144.092 1.98722 143.779 2.35795 143.549 2.84659C143.322 3.33239 143.208 3.92756 143.208 4.6321C143.208 5.33949 143.324 5.9375 143.554 6.42614C143.784 6.91477 144.099 7.28551 144.5 7.53835C144.9 7.79119 145.356 7.91761 145.868 7.91761C146.342 7.91761 146.755 7.82102 147.108 7.62784C147.463 7.43466 147.737 7.16193 147.93 6.80966C148.126 6.45455 148.224 6.03693 148.224 5.55682L148.565 5.62074H146.068V4.53409H149.498V5.52699C149.498 6.25994 149.342 6.89631 149.029 7.43608C148.72 7.97301 148.291 8.38778 147.743 8.6804C147.197 8.97301 146.572 9.11932 145.868 9.11932C145.078 9.11932 144.385 8.9375 143.788 8.57386C143.194 8.21023 142.731 7.6946 142.399 7.02699C142.066 6.35653 141.9 5.56108 141.9 4.64062C141.9 3.9446 141.997 3.3196 142.19 2.76562C142.383 2.21165 142.654 1.74148 143.004 1.35511C143.356 0.965909 143.77 0.669034 144.244 0.464489C144.721 0.257102 145.243 0.153409 145.808 0.153409C146.279 0.153409 146.718 0.223011 147.125 0.362216C147.534 0.50142 147.897 0.698863 148.216 0.954545C148.537 1.21023 148.802 1.5142 149.012 1.86648C149.223 2.21591 149.365 2.60369 149.439 3.02983H148.088ZM3.77131 33H0.475852L5.49716 18.4545H9.46023L14.4744 33H11.179L7.53551 21.7784H7.42188L3.77131 33ZM3.56534 27.2827H11.3494V29.6832H3.56534V27.2827ZM16.2251 33V18.4545H21.9638C23.0623 18.4545 23.9998 18.651 24.7763 19.044C25.5575 19.4323 26.1518 19.9839 26.5589 20.6989C26.9709 21.4091 27.1768 22.2448 27.1768 23.206C27.1768 24.1719 26.9685 25.0028 26.5518 25.6989C26.1352 26.3902 25.5315 26.9205 24.7408 27.2898C23.9548 27.6591 23.0031 27.8438 21.8857 27.8438H18.0433V25.3722H21.3885C21.9756 25.3722 22.4633 25.2917 22.8516 25.1307C23.2398 24.9697 23.5286 24.7282 23.718 24.4062C23.9122 24.0843 24.0092 23.6842 24.0092 23.206C24.0092 22.723 23.9122 22.3158 23.718 21.9844C23.5286 21.6529 23.2375 21.402 22.8445 21.2315C22.4562 21.0563 21.9661 20.9688 21.3743 20.9688H19.3004V33H16.2251ZM24.0803 26.3807L27.6953 33H24.3004L20.7635 26.3807H24.0803ZM29.3501 33V18.4545H39.1513V20.9901H32.4254V24.456H38.647V26.9915H32.4254V30.4645H39.1797V33H29.3501ZM45.3729 18.4545H48.8175L52.1342 24.7188H52.2763L55.593 18.4545H59.0376L53.7322 27.858V33H50.6783V27.858L45.3729 18.4545ZM73.2049 25.7273C73.2049 27.3134 72.9042 28.6629 72.3029 29.7756C71.7063 30.8883 70.8919 31.7382 69.8597 32.3253C68.8323 32.9077 67.677 33.1989 66.3938 33.1989C65.1012 33.1989 63.9412 32.9053 62.9137 32.3182C61.8862 31.7311 61.0742 30.8812 60.4776 29.7685C59.881 28.6558 59.5827 27.3087 59.5827 25.7273C59.5827 24.1411 59.881 22.7917 60.4776 21.679C61.0742 20.5663 61.8862 19.7187 62.9137 19.1364C63.9412 18.5492 65.1012 18.2557 66.3938 18.2557C67.677 18.2557 68.8323 18.5492 69.8597 19.1364C70.8919 19.7187 71.7063 20.5663 72.3029 21.679C72.9042 22.7917 73.2049 24.1411 73.2049 25.7273ZM70.087 25.7273C70.087 24.6998 69.9331 23.8333 69.6254 23.1278C69.3223 22.4223 68.8938 21.8873 68.3398 21.5227C67.7859 21.1581 67.1372 20.9759 66.3938 20.9759C65.6504 20.9759 65.0018 21.1581 64.4478 21.5227C63.8938 21.8873 63.4629 22.4223 63.1552 23.1278C62.8522 23.8333 62.7006 24.6998 62.7006 25.7273C62.7006 26.7547 62.8522 27.6212 63.1552 28.3267C63.4629 29.0322 63.8938 29.5672 64.4478 29.9318C65.0018 30.2964 65.6504 30.4787 66.3938 30.4787C67.1372 30.4787 67.7859 30.2964 68.3398 29.9318C68.8938 29.5672 69.3223 29.0322 69.6254 28.3267C69.9331 27.6212 70.087 26.7547 70.087 25.7273ZM84.4673 18.4545H87.5426V27.9006C87.5426 28.9612 87.2893 29.8892 86.7827 30.6847C86.2808 31.4801 85.5777 32.1004 84.6733 32.5455C83.7689 32.9858 82.7154 33.206 81.5128 33.206C80.3054 33.206 79.2495 32.9858 78.3452 32.5455C77.4408 32.1004 76.7377 31.4801 76.2358 30.6847C75.7339 29.8892 75.483 28.9612 75.483 27.9006V18.4545H78.5582V27.6378C78.5582 28.1918 78.679 28.6842 78.9205 29.1151C79.1667 29.5459 79.5123 29.8845 79.9574 30.1307C80.4025 30.3769 80.9209 30.5 81.5128 30.5C82.1094 30.5 82.6278 30.3769 83.0682 30.1307C83.5133 29.8845 83.8565 29.5459 84.098 29.1151C84.3442 28.6842 84.4673 28.1918 84.4673 27.6378V18.4545ZM104.347 23.1562C104.247 22.8106 104.107 22.5052 103.928 22.2401C103.748 21.9702 103.527 21.7429 103.267 21.5582C103.011 21.3688 102.718 21.2244 102.386 21.125C102.06 21.0256 101.697 20.9759 101.3 20.9759C100.556 20.9759 99.9029 21.1605 99.3395 21.5298C98.7808 21.8991 98.3452 22.4366 98.0327 23.142C97.7202 23.8428 97.5639 24.6998 97.5639 25.7131C97.5639 26.7263 97.7178 27.5881 98.0256 28.2983C98.3333 29.0085 98.7689 29.5507 99.3324 29.9247C99.8958 30.294 100.561 30.4787 101.328 30.4787C102.024 30.4787 102.618 30.3556 103.111 30.1094C103.608 29.8584 103.987 29.5057 104.247 29.0511C104.512 28.5966 104.645 28.0592 104.645 27.4389L105.27 27.5312H101.52V25.2159H107.607V27.0483C107.607 28.3267 107.337 29.4252 106.797 30.3438C106.257 31.2576 105.514 31.9631 104.567 32.4602C103.62 32.9527 102.536 33.1989 101.314 33.1989C99.9503 33.1989 98.7524 32.8982 97.7202 32.2969C96.688 31.6908 95.883 30.8314 95.3054 29.7188C94.7325 28.6013 94.446 27.2756 94.446 25.7415C94.446 24.5625 94.6165 23.5114 94.9574 22.5881C95.303 21.66 95.786 20.8741 96.4062 20.2301C97.0265 19.5862 97.7486 19.0961 98.5724 18.7599C99.3963 18.4238 100.289 18.2557 101.25 18.2557C102.074 18.2557 102.841 18.3764 103.551 18.6179C104.261 18.8546 104.891 19.1908 105.44 19.6264C105.994 20.062 106.446 20.5805 106.797 21.1818C107.147 21.7784 107.372 22.4366 107.472 23.1562H104.347ZM111.974 33H108.679L113.7 18.4545H117.663L122.678 33H119.382L115.739 21.7784H115.625L111.974 33ZM111.768 27.2827H119.553V29.6832H111.768V27.2827ZM124.428 18.4545H128.221L132.227 28.2273H132.397L136.403 18.4545H140.195V33H137.212V23.5327H137.092L133.327 32.929H131.296L127.532 23.4972H127.411V33H124.428V18.4545ZM142.729 33V18.4545H152.53V20.9901H145.804V24.456H152.026V26.9915H145.804V30.4645H152.559V33H142.729ZM157.518 28.6392V28.3977C157.522 27.5691 157.596 26.9086 157.738 26.4162C157.885 25.9238 158.098 25.526 158.377 25.223C158.656 24.92 158.993 24.6454 159.386 24.3991C159.679 24.2098 159.942 24.0133 160.174 23.8097C160.406 23.6061 160.591 23.3812 160.728 23.1349C160.865 22.884 160.934 22.6046 160.934 22.2969C160.934 21.9702 160.856 21.6837 160.7 21.4375C160.543 21.1913 160.333 21.0019 160.067 20.8693C159.807 20.7367 159.518 20.6705 159.201 20.6705C158.893 20.6705 158.602 20.7391 158.327 20.8764C158.053 21.009 157.828 21.2079 157.653 21.473C157.478 21.7334 157.383 22.0578 157.369 22.446H154.471C154.495 21.4991 154.722 20.7178 155.153 20.1023C155.584 19.482 156.154 19.0204 156.864 18.7173C157.575 18.4096 158.358 18.2557 159.215 18.2557C160.157 18.2557 160.991 18.4119 161.715 18.7244C162.44 19.0322 163.008 19.4796 163.42 20.0668C163.832 20.6539 164.038 21.3617 164.038 22.1903C164.038 22.7443 163.945 23.2367 163.761 23.6676C163.581 24.0937 163.327 24.4725 163.001 24.804C162.674 25.1307 162.288 25.4266 161.843 25.6918C161.469 25.9143 161.161 26.1463 160.92 26.3878C160.683 26.6293 160.505 26.9086 160.387 27.2259C160.273 27.5431 160.214 27.9337 160.21 28.3977V28.6392H157.518ZM158.924 33.1847C158.451 33.1847 158.046 33.0189 157.71 32.6875C157.378 32.3513 157.215 31.9489 157.219 31.4801C157.215 31.0161 157.378 30.6184 157.71 30.2869C158.046 29.9555 158.451 29.7898 158.924 29.7898C159.374 29.7898 159.769 29.9555 160.11 30.2869C160.451 30.6184 160.624 31.0161 160.629 31.4801C160.624 31.7926 160.541 32.0791 160.38 32.3395C160.224 32.5952 160.018 32.8011 159.762 32.9574C159.506 33.1089 159.227 33.1847 158.924 33.1847Z" fill="white"/>
</svg>
